
<svg width="317" height="106" viewBox="0 0 317 106" fill="none" xmlns="http://www.w3.org/2000/svg">
<style>
@media(prefers-color-scheme: dark){
    .symbol{
        fill: #fff;
    }
    .text{
        stroke: #fff;
    }

}
</style>
<path d="M96.368 44.424C97.728 43.08 99.384 41.992 101.336 41.16C103.304 40.328 105.552 39.912 108.08 39.912C110.624 39.912 112.944 40.352 115.04 41.232C117.152 42.096 118.96 43.312 120.464 44.88C121.984 46.448 123.16 48.32 123.992 50.496C124.824 52.656 125.24 55.04 125.24 57.648C125.24 60.224 124.848 62.6 124.064 64.776C123.28 66.952 122.16 68.824 120.704 70.392C119.264 71.96 117.512 73.184 115.448 74.064C113.384 74.944 111.072 75.384 108.512 75.384C105.648 75.384 103.176 74.92 101.096 73.992C99.032 73.064 97.296 71.728 95.888 69.984L98.456 67.224C98.712 66.952 99.016 66.816 99.368 66.816C99.72 66.816 100.08 66.976 100.448 67.296C100.976 67.776 101.504 68.184 102.032 68.52C102.576 68.84 103.144 69.104 103.736 69.312C104.344 69.52 105 69.672 105.704 69.768C106.424 69.864 107.224 69.912 108.104 69.912C109.432 69.912 110.68 69.688 111.848 69.24C113.032 68.792 114.08 68.136 114.992 67.272C115.92 66.408 116.688 65.352 117.296 64.104C117.92 62.84 118.328 61.4 118.52 59.784H102.44V54.984H118.448C118.224 53.464 117.816 52.112 117.224 50.928C116.632 49.728 115.888 48.72 114.992 47.904C114.096 47.088 113.064 46.472 111.896 46.056C110.744 45.624 109.488 45.408 108.128 45.408C106.752 45.408 105.616 45.552 104.72 45.84C103.824 46.128 103.072 46.44 102.464 46.776C101.872 47.112 101.376 47.424 100.976 47.712C100.576 48 100.2 48.144 99.848 48.144C99.496 48.144 99.216 48.072 99.008 47.928C98.816 47.784 98.648 47.616 98.504 47.424L96.368 44.424ZM151.025 75H145.097V54.768H135.497V75H129.569V50.376H151.025V75ZM179.025 50.376V75H173.097V60.624C173.097 60.256 173.113 59.856 173.145 59.424C173.193 58.976 173.249 58.528 173.313 58.08C172.993 58.816 172.641 59.464 172.257 60.024C172.225 60.056 172.065 60.28 171.777 60.696C171.489 61.096 171.113 61.616 170.649 62.256C170.201 62.896 169.689 63.624 169.113 64.44C168.537 65.24 167.953 66.056 167.361 66.888C165.969 68.856 164.393 71.08 162.633 73.56C162.409 73.896 162.113 74.224 161.745 74.544C161.393 74.864 160.985 75.024 160.521 75.024H156.897V50.4H162.825V64.776C162.825 65.144 162.801 65.552 162.753 66C162.721 66.432 162.673 66.872 162.609 67.32C162.961 66.536 163.313 65.888 163.665 65.376C163.681 65.344 163.833 65.128 164.121 64.728C164.409 64.328 164.777 63.808 165.225 63.168C165.689 62.528 166.209 61.808 166.785 61.008C167.361 60.192 167.945 59.36 168.537 58.512C169.929 56.544 171.513 54.32 173.289 51.84C173.513 51.488 173.809 51.16 174.177 50.856C174.545 50.536 174.961 50.376 175.425 50.376H179.025ZM210.873 70.608V81.48C210.873 82.024 210.713 82.456 210.393 82.776C210.073 83.096 209.665 83.256 209.169 83.256H205.473V75H184.881V50.376H190.809V70.608H200.409V50.376H206.337V70.608H210.873ZM230.042 59.856C230.042 59.088 229.93 58.368 229.706 57.696C229.498 57.008 229.178 56.408 228.746 55.896C228.314 55.384 227.762 54.984 227.09 54.696C226.434 54.392 225.666 54.24 224.786 54.24C223.074 54.24 221.722 54.728 220.73 55.704C219.754 56.68 219.13 58.064 218.858 59.856H230.042ZM218.738 63.432C218.834 64.696 219.058 65.792 219.41 66.72C219.762 67.632 220.226 68.392 220.802 69C221.378 69.592 222.058 70.04 222.842 70.344C223.642 70.632 224.522 70.776 225.482 70.776C226.442 70.776 227.266 70.664 227.954 70.44C228.658 70.216 229.266 69.968 229.778 69.696C230.306 69.424 230.762 69.176 231.146 68.952C231.546 68.728 231.93 68.616 232.298 68.616C232.794 68.616 233.162 68.8 233.402 69.168L235.106 71.328C234.45 72.096 233.714 72.744 232.898 73.272C232.082 73.784 231.226 74.2 230.33 74.52C229.45 74.824 228.546 75.04 227.618 75.168C226.706 75.296 225.818 75.36 224.954 75.36C223.242 75.36 221.65 75.08 220.178 74.52C218.706 73.944 217.426 73.104 216.338 72C215.25 70.88 214.394 69.504 213.77 67.872C213.146 66.224 212.834 64.32 212.834 62.16C212.834 60.48 213.106 58.904 213.65 57.432C214.194 55.944 214.97 54.656 215.978 53.568C217.002 52.464 218.242 51.592 219.698 50.952C221.17 50.312 222.826 49.992 224.666 49.992C226.218 49.992 227.65 50.24 228.962 50.736C230.274 51.232 231.402 51.96 232.346 52.92C233.29 53.864 234.026 55.032 234.554 56.424C235.098 57.8 235.37 59.376 235.37 61.152C235.37 62.048 235.274 62.656 235.082 62.976C234.89 63.28 234.522 63.432 233.978 63.432H218.738ZM261.275 50.376V75H255.347V64.104H245.747V75H239.819V50.376H245.747V59.712H255.347V50.376H261.275ZM288.267 54.768H279.483V75H273.555V54.768H264.795V50.376H288.267V54.768ZM297.684 68.616C298.356 69.432 299.084 70.008 299.868 70.344C300.668 70.68 301.532 70.848 302.46 70.848C303.356 70.848 304.164 70.68 304.884 70.344C305.604 70.008 306.212 69.496 306.708 68.808C307.22 68.12 307.612 67.256 307.884 66.216C308.156 65.16 308.292 63.92 308.292 62.496C308.292 61.056 308.172 59.84 307.932 58.848C307.708 57.84 307.38 57.024 306.948 56.4C306.516 55.776 305.988 55.32 305.364 55.032C304.756 54.744 304.06 54.6 303.276 54.6C302.044 54.6 300.996 54.864 300.132 55.392C299.268 55.904 298.452 56.632 297.684 57.576V68.616ZM297.372 53.736C298.38 52.6 299.524 51.68 300.804 50.976C302.084 50.272 303.588 49.92 305.316 49.92C306.66 49.92 307.884 50.2 308.988 50.76C310.108 51.32 311.068 52.136 311.868 53.208C312.684 54.264 313.308 55.576 313.74 57.144C314.188 58.696 314.412 60.48 314.412 62.496C314.412 64.336 314.164 66.04 313.668 67.608C313.172 69.176 312.46 70.536 311.532 71.688C310.62 72.84 309.508 73.744 308.196 74.4C306.9 75.04 305.444 75.36 303.828 75.36C302.452 75.36 301.276 75.152 300.3 74.736C299.324 74.304 298.452 73.712 297.684 72.96V83.04H291.756V50.376H295.38C296.148 50.376 296.652 50.736 296.892 51.456L297.372 53.736Z" class="symbol" fill="black"/>
<path d="M87 50.1666C87 69.6036 71.126 85.3964 51.5 85.3964C31.8739 85.3964 16 69.6036 16 50.1666C16 30.7296 31.8739 14.9368 51.5 14.9368C71.126 14.9368 87 30.7296 87 50.1666Z" class="text" stroke="black" stroke-width="6"/>
<path d="M76 51.1666C76 63.4743 65.9463 73.4877 53.5 73.4877C41.0536 73.4877 31 63.4743 31 51.1666C31 38.8589 41.0536 28.8456 53.5 28.8456C65.9463 28.8456 76 38.8589 76 51.1666Z" class="text" stroke="black" stroke-width="6"/>
<path d="M81 15C64.68 -1.19219 37.8 -0.806647 21 15" class="text" stroke="black" stroke-width="6" stroke-linecap="round"/>
<path d="M6.89238 63.1151C12.3146 87.5509 36.7847 101.072 61.019 94.1458" class="text" stroke="black" stroke-width="6" stroke-linecap="round"/>
<circle cx="54.5" cy="51.5" r="9.5" class="symbol" fill="black"/>
</svg>
