<svg width="23" height="27" viewBox="0 0 23 27" fill="none" xmlns="http://www.w3.org/2000/svg">
<path d="M11.5 0C5.152 0 0 4.82781 0 10.7732C0 15.2881 6.164 22.4404 9.798 26.2848C10.258 26.7765 10.856 27 11.5 27C12.144 27 12.742 26.7318 13.202 26.2848C16.836 22.4404 23 15.2881 23 10.7732C23 4.82781 17.848 0 11.5 0ZM11.684 24.9437C11.592 25.0331 11.454 25.0331 11.316 24.9437C6.854 20.2053 2.07 14.0364 2.07 10.7732C2.07 5.94536 6.302 2.01159 11.5 2.01159C16.698 2.01159 20.93 5.94536 20.93 10.7732C20.93 14.0364 16.146 20.2053 11.684 24.9437Z" fill="white"/>
<path d="M11.5001 6.2135C8.74008 6.2135 6.48608 8.4039 6.48608 11.086C6.48608 13.7681 8.74008 16.0032 11.5001 16.0032C14.2601 16.0032 16.5141 13.8128 16.5141 11.1307C16.5141 8.4486 14.2601 6.2135 11.5001 6.2135ZM11.5001 13.9916C9.84408 13.9916 8.55608 12.6953 8.55608 11.1307C8.55608 9.56615 9.89008 8.26979 11.5001 8.26979C13.1101 8.26979 14.4441 9.56615 14.4441 11.1307C14.4441 12.6953 13.1561 13.9916 11.5001 13.9916Z" fill="white"/>
</svg>
