<svg width="31" height="25" viewBox="0 0 31 25" fill="none" xmlns="http://www.w3.org/2000/svg">
<path d="M27.7772 0H3.22277C1.4835 0 0 1.55556 0 3.5V21.5C0 23.3889 1.43234 25 3.22277 25H27.7772C29.5165 25 31 23.4444 31 21.5V3.44444C31 1.55556 29.5165 0 27.7772 0ZM27.7772 2.5C27.8284 2.5 27.8795 2.5 27.9307 2.5L15.5 11.1667L3.06931 2.5C3.12046 2.5 3.17162 2.5 3.22277 2.5H27.7772ZM27.7772 22.3889H3.22277C2.71122 22.3889 2.30198 21.9444 2.30198 21.3889V4.94444L14.2723 13.2778C14.6304 13.5556 15.0396 13.6667 15.4488 13.6667C15.8581 13.6667 16.2673 13.5556 16.6254 13.2778L28.5957 4.94444V21.4444C28.698 22 28.2888 22.3889 27.7772 22.3889Z" fill="white"/>
</svg>
