<svg width="28" height="28" viewBox="0 0 28 28" fill="none" xmlns="http://www.w3.org/2000/svg">
<path d="M11.0564 3.97426L12.0299 5.71866C12.9084 7.29288 12.5558 9.358 11.172 10.7417C11.172 10.7417 9.49382 12.4202 12.5367 15.4633C15.5787 18.5053 17.2583 16.828 17.2583 16.828C18.642 15.4442 20.7071 15.0916 22.2813 15.9701L24.0257 16.9436C26.4029 18.2702 26.6835 21.6038 24.5942 23.6934C23.3387 24.9489 21.8006 25.9258 20.1003 25.9902C17.2382 26.0988 12.3774 25.3744 7.50155 20.4985C2.6257 15.6226 1.90132 10.7619 2.00983 7.89965C2.07428 6.19941 3.0512 4.66135 4.30672 3.40585C6.39614 1.31642 9.72975 1.59716 11.0564 3.97426Z" stroke="white" stroke-width="2.5" stroke-linecap="round"/>
</svg>
